# File created by Blade
# Date/Time:  Fri Jan 16 17:18:57 2015
#---------------------------------------------------------
:version 1.10
:name HOM
:units
  mass 1.0
  length 1.000000
  angle deg
:documentation
     Acclaim Skeleton File
:root
   axis xyz
   order TX TY TZ RX RY RZ
   position 0.000000 0.000000 0.000000
   orientation 0 0 0
:bonedata
   begin
      id 1
      name Spine_dum
      direction 0.000000 1.000000 0.000000
      length 7.170412
      axis 0.0 0.0 0.0 xyz
   end
   begin
      id 2
      name LeftUpLeg_dum
      direction 1.000000 0.000000 0.000000
      length 4.318350
      axis 0.0 0.0 0.0 xyz
   end
   begin
      id 3
      name RightUpLeg_dum
      direction -1.000000 0.000000 0.000000
      length 4.318350
      axis 0.0 0.0 0.0 xyz
   end
   begin
      id 4
      name Spine
      direction 0.000000 1.000000 0.000000
      length 0.000000
      axis 0.0 0.0 0.0 xyz
      dof rx ry rz
   end
   begin
      id 5
      name Spine_dum1
      direction 0.000000 1.000000 0.000000
      length 14.276153
      axis 0.0 0.0 0.0 xyz
   end
   begin
      id 6
      name Spine_dum2
      direction 0.000000 1.000000 0.000000
      length 10.718243
      axis 0.0 0.0 0.0 xyz
   end
   begin
      id 7
      name Spine_dum3
      direction 0.000000 1.000000 0.000000
      length 10.718243
      axis 0.0 0.0 0.0 xyz
   end
   begin
      id 8
      name Head
      direction 0.000000 1.000000 0.000000
      length 4.527550
      axis 0.0 0.0 0.0 xyz
      dof rx ry rz
   end
   begin
      id 9
      name LeftShoulder
      direction 1.000000 0.000000 0.000000
      length 7.058872
      axis 0.0 0.0 -90.0 xyz
      dof rx ry rz
   end
   begin
      id 10
      name LeftArm
      direction 1.000000 0.000000 0.000000
      length 10.955525
      axis 0.0 0.0 -90.0 xyz
      dof rx ry rz
   end
   begin
      id 11
      name LeftForeArm
      direction 1.000000 0.000000 0.000000
      length 8.193716
      axis 0.0 0.0 -90.0 xyz
      dof ry rz rx
   end
   begin
      id 12
      name LeftHand
      direction 0.000000 0.000000 0.000000
      length 0.000000
      axis 0.0 0.0 -90.0 xyz
      dof rx ry rz
   end
   begin
      id 13
      name LeftHand_dum1
      direction 0.000000 0.000000 0.000000
      length 0.000000
      axis 0.0 0.0 -90.0 xyz
   end
   begin
      id 14
      name LeftHand_dum2
      direction 1.000000 0.000000 0.000000
      length 3.937000
      axis 0.0 0.0 -90.0 xyz
   end
   begin
      id 15
      name LeftHandThumb1
      direction 0.000000 0.000000 1.000000
      length 3.937000
      axis 0.0 0.0 -90.0 xyz
      dof rx rz ry
   end
   begin
      id 16
      name RightShoulder
      direction -1.000000 0.000000 0.000000
      length 7.058872
      axis 0.0 0.0 90.0 xyz
      dof rx ry rz
   end
   begin
      id 17
      name RightArm
      direction -1.000000 0.000000 0.000000
      length 10.955525
      axis 0.0 0.0 90.0 xyz
      dof rx ry rz
   end
   begin
      id 18
      name RightForeArm
      direction -1.000000 0.000000 0.000000
      length 8.193716
      axis 0.0 0.0 90.0 xyz
      dof ry rz rx
   end
   begin
      id 19
      name RightHand
      direction 0.000000 0.000000 0.000000
      length 0.000000
      axis 0.0 0.0 90.0 xyz
      dof rx ry rz
   end
   begin
      id 20
      name RightHand_dum1
      direction 0.000000 0.000000 0.000000
      length 0.000000
      axis 0.0 0.0 90.0 xyz
   end
   begin
      id 21
      name RightHand_dum2
      direction -1.000000 0.000000 0.000000
      length 3.937000
      axis 0.0 0.0 90.0 xyz
   end
   begin
      id 22
      name RightHandThumb1
      direction 0.000000 0.000000 1.000000
      length 3.937000
      axis 0.0 0.0 90.0 xyz
      dof rx rz ry
   end
   begin
      id 23
      name LeftUpLeg
      direction 0.000000 -1.000000 0.000000
      length 17.323638
      axis 0.0 0.0 0.0 xyz
      dof rx ry rz
   end
   begin
      id 24
      name LeftLeg
      direction 0.000000 -1.000000 0.000000
      length 16.270368
      axis 0.0 0.0 0.0 xyz
      dof rx ry rz
   end
   begin
      id 25
      name LeftFoot
      direction 0.000000 -0.258819 0.965926
      length 4.922846
      axis 15.0 0.0 0.0 xyz
      dof rx ry rz
   end
   begin
      id 26
      name LeftToeBase
      direction 0.000000 0.000000 1.000000
      length 2.952750
      axis 0.0 0.0 0.0 xyz
      dof rx ry rz
   end
   begin
      id 27
      name RightUpLeg
      direction 0.000000 -1.000000 0.000000
      length 17.323638
      axis 0.0 0.0 0.0 xyz
      dof rx ry rz
   end
   begin
      id 28
      name RightLeg
      direction 0.000000 -1.000000 0.000000
      length 16.270368
      axis 0.0 0.0 0.0 xyz
      dof rx ry rz
   end
   begin
      id 29
      name RightFoot
      direction 0.000000 -0.258819 0.965926
      length 4.922846
      axis 15.0 0.0 0.0 xyz
      dof rx ry rz
   end
   begin
      id 30
      name RightToeBase
      direction 0.000000 0.000000 1.000000
      length 2.952750
      axis 0.0 0.0 0.0 xyz
      dof rx ry rz
   end
:hierarchy
   begin
      root Spine_dum LeftUpLeg_dum RightUpLeg_dum
      Spine_dum Spine
      LeftUpLeg_dum LeftUpLeg
      RightUpLeg_dum RightUpLeg
      Spine Spine_dum1 Spine_dum2 Spine_dum3
      Spine_dum1 Head
      Spine_dum2 LeftShoulder
      Spine_dum3 RightShoulder
      LeftShoulder LeftArm
      LeftArm LeftForeArm
      LeftForeArm LeftHand
      LeftHand LeftHand_dum1 LeftHand_dum2
      LeftHand_dum1 LeftHandThumb1
      RightShoulder RightArm
      RightArm RightForeArm
      RightForeArm RightHand
      RightHand RightHand_dum1 RightHand_dum2
      RightHand_dum1 RightHandThumb1
      LeftUpLeg LeftLeg
      LeftLeg LeftFoot
      LeftFoot LeftToeBase
      RightUpLeg RightLeg
      RightLeg RightFoot
      RightFoot RightToeBase
   end

# File created by Blade
# Date/Time:  Fri Jan 16 17:19:08 2015
# Frame Rate: 120.000 fps
#------------------------------------------------------
:FULLY-SPECIFIED
:DEGREES
2585
root -5.278965 35.173603 -9.377015 -1.027816 -5.726122 -6.479772
Spine -4.536254 -0.924375 7.879619
Head 8.603897 -8.071007 -4.533642
LeftShoulder -20.138476 13.905926 -14.759799
LeftArm 20.226488 -8.749027 -74.270698
LeftForeArm 15.684710 -0.000000 9.660803
LeftHand 0.186597 -0.000000 -5.464477
LeftHandThumb1 -26.253704 0.000000 33.147579
RightShoulder -7.211688 3.467704 -5.564881
RightArm 5.418409 -27.078608 30.741672
RightForeArm 9.261116 -0.000000 103.745181
RightHand 7.515817 0.000000 19.112148
RightHandThumb1 -24.326973 -0.000000 -32.862282
LeftUpLeg 12.321881 14.233072 7.393968
LeftLeg -9.450310 -0.000000 0.000000
LeftFoot -16.462708 28.760885 -7.434115
LeftToeBase 23.054035 -0.000000 -0.000000
RightUpLeg 8.717369 -3.820141 4.494786
RightLeg -4.887718 -0.000000 0.000000
RightFoot -4.736861 -28.276058 4.231790
RightToeBase 13.587032 -0.000000 -0.000000
2586
root -5.276122 35.173360 -9.376349 -1.019502 -5.690296 -6.471985
Spine -4.537106 -0.933769 7.877900
Head 8.580609 -8.112929 -4.523905
LeftShoulder -20.152764 13.919611 -14.785411
LeftArm 20.235102 -8.807550 -74.274191
LeftForeArm 15.741878 0.000000 9.668786
LeftHand 0.217805 -0.000000 -5.434712
LeftHandThumb1 -26.253704 0.000000 33.147579
RightShoulder -7.241399 3.530477 -5.581163
RightArm 5.195874 -26.857466 30.836456
RightForeArm 9.164350 -0.000000 103.598373
RightHand 7.548883 0.000000 19.195634
RightHandThumb1 -24.326973 -0.000000 -32.862282
LeftUpLeg 12.303807 14.220995 7.379824
LeftLeg -9.446550 -0.000000 0.000000
LeftFoot -16.458860 28.732324 -7.437406
LeftToeBase 23.006399 -0.000000 -0.000000
RightUpLeg 8.710695 -3.854947 4.484205
RightLeg -4.889872 -0.000000 0.000000
RightFoot -4.730907 -28.292614 4.208709
RightToeBase 13.612828 -0.000000 -0.000000
2587
root -5.272714 35.173000 -9.376333 -1.014852 -5.656454 -6.459567
Spine -4.528295 -0.937151 7.863796
Head 8.552883 -8.166166 -4.492812
LeftShoulder -20.146591 13.918556 -14.785443
LeftArm 20.214688 -8.818170 -74.267756
LeftForeArm 15.739517 0.000000 9.685261
LeftHand 0.217115 -0.000000 -5.349714
LeftHandThumb1 -26.253704 0.000000 33.147579
RightShoulder -7.242965 3.458361 -5.572739
RightArm 4.958367 -26.425365 30.938350
RightForeArm 9.163455 -0.000000 103.496278
RightHand 7.466203 -0.000000 19.234732
RightHandThumb1 -24.326973 -0.000000 -32.862282
LeftUpLeg 12.291419 14.215294 7.360811
LeftLeg -9.452927 -0.000000 0.000000
LeftFoot -16.441992 28.712234 -7.428290
LeftToeBase 23.018805 -0.000000 -0.000000
RightUpLeg 8.713099 -3.871585 4.468642
RightLeg -4.903199 -0.000000 0.000000
RightFoot -4.731192 -28.311014 4.212325
RightToeBase 13.579689 -0.000000 -0.000000
2588
root -5.269961 35.172749 -9.375020 -1.014901 -5.627164 -6.454072
Spine -4.515688 -0.952309 7.862057
Head 8.534018 -8.215530 -4.487860
LeftShoulder -20.159050 13.938105 -14.800493
LeftArm 20.219901 -8.819811 -74.255433
LeftForeArm 15.707532 0.000000 9.687331
LeftHand 0.214318 -0.000000 -5.324441
LeftHandThumb1 -26.253704 0.000000 33.147579
RightShoulder -7.268211 3.435550 -5.567451
RightArm 4.745688 -25.975115 31.005640
RightForeArm 8.973658 -0.000000 103.363218
RightHand 7.425020 -0.000000 19.244767
RightHandThumb1 -24.326973 -0.000000 -32.862282
LeftUpLeg 12.288297 14.207160 7.351384
LeftLeg -9.460806 -0.000000 0.000000
LeftFoot -16.446607 28.703028 -7.430020
LeftToeBase 23.009555 -0.000000 -0.000000
RightUpLeg 8.724239 -3.892371 4.457832
RightLeg -4.919387 -0.000000 0.000000
RightFoot -4.734926 -28.312997 4.236044
RightToeBase 13.581643 -0.000000 -0.000000
2589
root -5.266822 35.172455 -9.375315 -1.002925 -5.604618 -6.443236
Spine -4.514649 -0.978656 7.853555
Head 8.514399 -8.238053 -4.477302
LeftShoulder -20.182251 13.941872 -14.807035
LeftArm 20.213838 -8.833557 -74.250006
LeftForeArm 15.729238 -0.000000 9.678044
LeftHand 0.228948 -0.000000 -5.315184
LeftHandThumb1 -26.253704 0.000000 33.147579
RightShoulder -7.288338 3.452328 -5.549577
RightArm 4.498195 -25.428854 31.086903
RightForeArm 8.926035 -0.000000 103.205343
RightHand 7.386588 -0.000000 19.368466
RightHandThumb1 -24.326973 -0.000000 -32.862282
LeftUpLeg 12.268352 14.183599 7.329154
LeftLeg -9.459072 -0.000000 0.000000
LeftFoot -16.445003 28.700702 -7.431930
LeftToeBase 23.007140 -0.000000 -0.000000
RightUpLeg 8.715678 -3.889979 4.445490
RightLeg -4.927022 -0.000000 0.000000
RightFoot -4.734920 -28.332803 4.209629
RightToeBase 13.647684 -0.000000 -0.000000
2590
root -5.267207 35.171524 -9.372557 -1.021839 -5.565496 -6.434860
Spine -4.483446 -1.016104 7.827462
Head 8.501452 -8.282714 -4.439888
LeftShoulder -20.186421 13.964984 -14.793676
LeftArm 20.215123 -8.878750 -74.258162
LeftForeArm 15.776612 -0.000000 9.685466
LeftHand 0.231372 -0.000000 -5.341174
LeftHandThumb1 -26.253704 0.000000 33.147579
RightShoulder -7.326498 3.446708 -5.521848
RightArm 4.221185 -24.760026 31.215804
RightForeArm 8.789030 -0.000000 103.035524
RightHand 7.383674 -0.000000 19.482779
RightHandThumb1 -24.326973 -0.000000 -32.862282
LeftUpLeg 12.283780 14.170702 7.328286
LeftLeg -9.466240 -0.000000 0.000000
LeftFoot -16.437182 28.677626 -7.421421
LeftToeBase 23.009075 -0.000000 -0.000000
RightUpLeg 8.754858 -3.937159 4.434321
RightLeg -4.955989 -0.000000 0.000000
RightFoot -4.723382 -28.326916 4.188303
RightToeBase 13.600051 -0.000000 -0.000000
2591
root -5.264393 35.171549 -9.371492 -1.020249 -5.554224 -6.430068
Spine -4.470302 -1.032909 7.826553
Head 8.499419 -8.316340 -4.441969
LeftShoulder -20.195238 13.985495 -14.802828
LeftArm 20.217745 -8.885931 -74.247831
LeftForeArm 15.795799 -0.000000 9.663605
LeftHand 0.270140 -0.000000 -5.392485
LeftHandThumb1 -26.253704 0.000000 33.147579
RightShoulder -7.365792 3.463124 -5.491031
RightArm 3.933400 -24.044240 31.311125
RightForeArm 8.678141 -0.000000 102.872166
RightHand 7.311617 -0.000000 19.459455
RightHandThumb1 -24.326973 -0.000000 -32.862282
LeftUpLeg 12.276006 14.153762 7.317225
LeftLeg -9.455156 -0.000000 0.000000
LeftFoot -16.457145 28.679926 -7.439126
LeftToeBase 23.050003 -0.000000 -0.000000
RightUpLeg 8.759387 -3.943273 4.424152
RightLeg -4.963896 -0.000000 0.000000
RightFoot -4.726664 -28.320232 4.200607
RightToeBase 13.626787 -0.000000 -0.000000
2592
root -5.259875 35.171440 -9.371418 -1.007286 -5.551974 -6.422331
Spine -4.468748 -1.051284 7.828419
Head 8.499037 -8.346779 -4.463558
LeftShoulder -20.209092 14.000396 -14.817542
LeftArm 20.211842 -8.891786 -74.232450
LeftForeArm 15.776567 -0.000000 9.636050
LeftHand 0.324653 -0.000000 -5.421478
LeftHandThumb1 -26.253704 0.000000 33.147579
RightShoulder -7.403839 3.621325 -5.484751
RightArm 3.549926 -23.341243 31.464563
RightForeArm 8.550135 0.000000 102.684075
RightHand 7.260569 -0.000000 19.385621
RightHandThumb1 -24.326973 -0.000000 -32.862282
LeftUpLeg 12.259121 14.166706 7.300317
LeftLeg -9.450731 -0.000000 0.000000
LeftFoot -16.446298 28.661312 -7.418489
LeftToeBase 23.041824 -0.000000 -0.000000
RightUpLeg 8.747095 -3.952765 4.410043
RightLeg -4.968030 -0.000000 0.000000
RightFoot -4.723970 -28.330467 4.190817
RightToeBase 13.649455 -0.000000 -0.000000
2593
root -5.256435 35.171696 -9.371863 -0.996698 -5.561953 -6.429718
Spine -4.457957 -1.075126 7.852356
Head 8.500058 -8.355638 -4.490910
LeftShoulder -20.225916 14.009272 -14.841066
LeftArm 20.197712 -8.916598 -74.220904
LeftForeArm 15.807154 0.000000 9.625932
LeftHand 0.292814 -0.000000 -5.445097
LeftHandThumb1 -26.253704 0.000000 33.147579
RightShoulder -7.396957 3.698741 -5.472248
RightArm 3.137902 -22.469032 31.633115
RightForeArm 8.536312 -0.000000 102.495981
RightHand 7.233152 -0.000000 19.327473
RightHandThumb1 -24.326973 -0.000000 -32.862282
LeftUpLeg 12.250819 14.175866 7.299717
LeftLeg -9.452947 -0.000000 0.000000
LeftFoot -16.451471 28.670364 -7.419816
LeftToeBase 23.028474 -0.000000 -0.000000
RightUpLeg 8.733391 -3.946824 4.410981
RightLeg -4.963043 -0.000000 0.000000
RightFoot -4.729786 -28.312520 4.222242
RightToeBase 13.600117 -0.000000 -0.000000
2594
root -5.253866 35.171622 -9.372010 -0.987256 -5.570112 -6.428684
Spine -4.450486 -1.106487 7.865543
Head 8.510276 -8.361359 -4.527446
LeftShoulder -20.242264 14.026339 -14.858692
LeftArm 20.185384 -8.958508 -74.212674
LeftForeArm 15.784610 -0.000000 9.611485
LeftHand 0.285221 0.000000 -5.474420
LeftHandThumb1 -26.253704 0.000000 33.147579
RightShoulder -7.396255 3.779474 -5.472067
RightArm 2.710773 -21.513287 31.839904
RightForeArm 8.514794 -0.000000 102.289567
RightHand 7.157004 -0.000000 19.187155
RightHandThumb1 -24.326973 -0.000000 -32.862282
LeftUpLeg 12.237515 14.201110 7.295461
LeftLeg -9.441769 -0.000000 0.000000
LeftFoot -16.451595 28.656181 -7.402913
LeftToeBase 23.014499 -0.000000 -0.000000
RightUpLeg 8.717275 -3.957540 4.407906
RightLeg -4.955157 -0.000000 0.000000
RightFoot -4.722174 -28.307793 4.194011
RightToeBase 13.640973 -0.000000 -0.000000
